<svg xmlns="http://www.w3.org/2000/svg" width="81" height="18" viewBox="0 0 81 18" fill="none">
  <path d="M8.04306 8.43166L15.5479 0.390625H11.5569L3.58637 8.76311V0.390625H0V17.0393H3.58637V13.1141L5.68152 10.9396L10.6723 17.0393H14.8837L8.55075 9.07084L8.04306 8.43098V8.43166Z" fill="#0052FE"/>
  <path d="M27.1137 7.78978C25.998 6.01998 23.9509 4.92529 21.4552 4.92529C18.788 4.92529 16.6223 6.17656 15.5663 8.15919C15.1101 9.00851 14.8613 9.99474 14.8613 11.0718C14.8613 14.6656 17.6445 17.2183 21.4552 17.2183C25.2659 17.2183 28.0281 14.6656 28.0281 11.0718C28.0281 9.83342 27.6993 8.71772 27.1137 7.78978ZM21.4552 14.3776C19.7173 14.3776 18.3799 13.1351 18.3799 11.0718C18.3799 9.29726 19.3668 8.13005 20.7489 7.83858C20.9746 7.7891 21.2112 7.7647 21.4552 7.7647C21.6267 7.7647 21.7914 7.77554 21.9534 7.80198C23.4372 8.01617 24.5074 9.20982 24.5074 11.0718C24.5074 13.1351 23.1938 14.3776 21.4559 14.3776H21.4552Z" fill="#0052FE"/>
  <path d="M33.8199 5.10278H30.3447V17.0399H33.8199V5.10278Z" fill="#0052FE"/>
  <path d="M44.337 4.92529C42.7102 4.92529 41.3065 5.48111 40.3711 6.50056V5.10288H37.0518V17.04H40.5263V11.1376C40.5263 10.2699 40.7134 9.58601 41.0462 9.07832C41.5505 8.29543 42.391 7.92195 43.4016 7.92195C44.7674 7.92195 45.6228 8.62215 45.7964 10.1303C45.8187 10.3187 45.8296 10.5234 45.8296 10.739V17.0394H47.7438L49.3068 14.869V10.2076C49.3068 6.56698 47.1669 4.92529 44.337 4.92529Z" fill="#0052FE"/>
  <path d="M67.3716 0.333496L50.3223 17.0398H55.6289L57.1866 14.8254L66.0085 2.27343L67.3716 0.333496Z" fill="url(#paint0_linear_2904_11)"/>
  <path d="M62.3462 0.333496L61.8012 1.09131L53.245 12.9776L50.3223 17.0398L67.3716 0.333496H62.3462Z" fill="url(#paint1_linear_2904_11)"/>
  <path d="M65.6839 14.1226L65.4636 13.8108C65.2799 13.5505 64.981 13.396 64.6637 13.396H60.653C60.5046 13.396 60.3894 13.4841 60.3345 13.6014L67.7478 17.04L65.6839 14.1226Z" fill="#F69300"/>
  <path d="M60.3344 13.6013C60.2856 13.7057 60.2849 13.8331 60.3575 13.9443L61.181 15.1976H61.1831L62.3943 17.0399H67.7485L60.3351 13.6013H60.3344Z" fill="url(#paint2_linear_2904_11)"/>
  <path d="M57.9241 3.42578L56.6545 1.56177L55.8181 0.334229H50.5798L57.842 3.90704C57.9844 3.80062 58.0379 3.59321 57.9247 3.42578H57.9241Z" fill="url(#paint3_linear_2904_11)"/>
  <path d="M50.5793 0.333684L52.8141 3.55538C52.8236 3.56826 52.8324 3.57911 52.8419 3.59199C53.027 3.83397 53.3137 3.97699 53.6201 3.97699H57.6328C57.7148 3.97699 57.7846 3.94852 57.8422 3.90582L50.58 0.333008L50.5793 0.333684Z" fill="#F69300"/>
  <path d="M74.7409 0.971783H73.3298V4.6727H72.3762V0.971783H70.9844V0.266846H74.7409V0.971783ZM76.5229 0.266846L77.7077 3.44885L78.8876 0.266846H80.135V4.6727H79.1718V3.44885L79.2777 1.36341L78.0304 4.6727H77.3802L76.1376 1.36831L76.2339 3.44885V4.6727H75.2852V0.266846H76.5229Z" fill="black"/>
  <defs>
    <linearGradient id="paint0_linear_2904_11" x1="63.5412" y1="4.81663" x2="56.9358" y2="12.4584" gradientUnits="userSpaceOnUse">
      <stop stop-color="#FFAC00"/>
      <stop offset="1" stop-color="#FE7801"/>
    </linearGradient>
    <linearGradient id="paint1_linear_2904_11" x1="50.3223" y1="8.687" x2="67.3716" y2="8.687" gradientUnits="userSpaceOnUse">
      <stop stop-color="#FFCE00"/>
      <stop offset="1" stop-color="#FFB003"/>
    </linearGradient>
    <linearGradient id="paint2_linear_2904_11" x1="60.2998" y1="15.321" x2="67.7478" y2="15.321" gradientUnits="userSpaceOnUse">
      <stop stop-color="#FE8B01"/>
      <stop offset="1" stop-color="#FE7801"/>
    </linearGradient>
    <linearGradient id="paint3_linear_2904_11" x1="50.5792" y1="2.1203" x2="57.9857" y2="2.1203" gradientUnits="userSpaceOnUse">
      <stop stop-color="#FFCE00"/>
      <stop offset="1" stop-color="#FFC101"/>
    </linearGradient>
  </defs>
</svg>