<svg width="135" height="30" viewBox="0 0 135 30" fill="none" xmlns="http://www.w3.org/2000/svg">
<g id="Group 27340">
<g id="Group">
<path id="Vector" d="M13.5044 14.5952L26.1052 1.09424H19.4042L6.02155 15.1517V1.09424H0V29.0476H6.02155V22.457L9.53935 18.8061L17.919 29.0476H24.9899L14.3568 15.6684L13.5044 14.5941V14.5952Z" fill="white"/>
<path id="Vector_2" d="M45.524 13.5175C43.6507 10.546 40.2137 8.70801 36.0233 8.70801C31.545 8.70801 27.9089 10.8089 26.1357 14.1378C25.3698 15.5638 24.9521 17.2197 24.9521 19.0281C24.9521 25.0621 29.6251 29.3481 36.0233 29.3481C42.4216 29.3481 47.0593 25.0621 47.0593 19.0281C47.0593 16.9488 46.5073 15.0755 45.524 13.5175ZM36.0233 24.5785C33.1053 24.5785 30.8599 22.4924 30.8599 19.0281C30.8599 16.0486 32.5169 14.0888 34.8375 13.5995C35.2164 13.5164 35.6136 13.4754 36.0233 13.4754C36.3113 13.4754 36.5878 13.4936 36.8598 13.538C39.3511 13.8976 41.1481 15.9018 41.1481 19.0281C41.1481 22.4924 38.9425 24.5785 36.0245 24.5785H36.0233Z" fill="white"/>
<path id="Vector_3" d="M56.7841 9.00598H50.9492V29.0486H56.7841V9.00598Z" fill="white"/>
<path id="Vector_4" d="M74.443 8.70801C71.7116 8.70801 69.3546 9.64123 67.7841 11.3529V9.00618H62.2109V29.0488H68.0447V19.1385C68.0447 17.6817 68.3588 16.5334 68.9176 15.681C69.7643 14.3665 71.1755 13.7394 72.8724 13.7394C75.1656 13.7394 76.6019 14.9151 76.8932 17.4473C76.9308 17.7637 76.949 18.1074 76.949 18.4693V29.0477H80.1629L82.7873 25.4036V17.577C82.7873 11.4644 79.1944 8.70801 74.443 8.70801Z" fill="white"/>
</g>
<g id="Group_2">
<path id="Vector_5" d="M113.118 0.998657L84.4922 29.0488H93.4022L96.0175 25.3307L110.83 4.25583L113.118 0.998657Z" fill="white"/>
<path id="Vector_6" d="M104.681 0.998657L103.765 2.27103L89.3996 22.2283L84.4922 29.0488L113.118 0.998657H104.681Z" fill="white"/>
<path id="Vector_7" d="M110.284 24.1504L109.915 23.6269C109.606 23.1899 109.104 22.9304 108.572 22.9304H101.838C101.588 22.9304 101.395 23.0784 101.303 23.2753L113.75 29.0487L110.284 24.1504Z" fill="white"/>
<path id="Vector_8" d="M101.303 23.2755C101.221 23.4508 101.22 23.6647 101.342 23.8514L102.724 25.9557H102.728L104.761 29.049H113.751L101.304 23.2755H101.303Z" fill="white"/>
<path id="Vector_9" d="M97.2549 6.19064L95.1233 3.06093L93.7189 0.999878H84.9238L97.1172 6.99867C97.3562 6.81999 97.4461 6.47174 97.256 6.19064H97.2549Z" fill="white"/>
<path id="Vector_10" d="M84.9229 0.998694L88.6751 6.40797C88.691 6.42959 88.7058 6.4478 88.7217 6.46942C89.0324 6.87572 89.5138 7.11585 90.0283 7.11585H96.7657C96.9034 7.11585 97.0206 7.06805 97.1173 6.99635L84.924 0.997559L84.9229 0.998694Z" fill="white"/>
</g>
<path id="Vector_11" d="M125.491 2.07007H123.122V8.28396H121.521V2.07007H119.184V0.886475H125.491V2.07007ZM128.483 0.886475L130.472 6.22911L132.453 0.886475H134.548V8.28396H132.93V6.22911L133.108 2.72763L131.014 8.28396H129.922L127.836 2.73585L127.998 6.22911V8.28396H126.405V0.886475H128.483Z" fill="white"/>
</g>
</svg>
