<svg width="24" height="24" viewBox="0 0 24 24" fill="none" xmlns="http://www.w3.org/2000/svg">
<g id="fa:twitter-square">
<path id="Vector" d="M18.6667 8.02513C18.1806 8.24214 17.6554 8.38971 17.0911 8.46783C17.6814 8.12061 18.0851 7.6128 18.3021 6.9444C17.7378 7.27426 17.1562 7.49561 16.5573 7.60846C16.0278 7.03554 15.3637 6.74908 14.5651 6.74908C13.8099 6.74908 13.1654 7.01601 12.6315 7.54987C12.0977 8.08372 11.8307 8.72825 11.8307 9.48346C11.8307 9.7352 11.8524 9.94353 11.8958 10.1085C10.776 10.0477 9.72569 9.76558 8.74479 9.2621C7.76389 8.75863 6.93056 8.08589 6.24479 7.24388C5.99306 7.6779 5.86719 8.13797 5.86719 8.62408C5.86719 9.61367 6.26215 10.3732 7.05208 10.9027C6.6441 10.894 6.21007 10.7812 5.75 10.5642V10.5902C5.75 11.2413 5.96701 11.8207 6.40104 12.3285C6.83507 12.8363 7.36892 13.151 8.0026 13.2725C7.75087 13.342 7.52951 13.3767 7.33854 13.3767C7.22569 13.3767 7.05642 13.3593 6.83073 13.3246C7.01302 13.8715 7.33637 14.3229 7.80078 14.6788C8.26519 15.0347 8.79253 15.217 9.38281 15.2256C8.37587 16.0069 7.24306 16.3975 5.98438 16.3975C5.75868 16.3975 5.54167 16.3845 5.33333 16.3585C6.61806 17.1744 8.01562 17.5824 9.52604 17.5824C10.4983 17.5824 11.4097 17.4283 12.2604 17.1202C13.1111 16.812 13.8403 16.3997 14.4479 15.8832C15.0556 15.3667 15.5786 14.7721 16.0169 14.0993C16.4553 13.4266 16.7808 12.7235 16.9935 11.99C17.2062 11.2565 17.3125 10.5251 17.3125 9.79596C17.3125 9.63971 17.3082 9.52252 17.2995 9.4444C17.8464 9.05377 18.3021 8.58068 18.6667 8.02513ZM22 5.49908V17.9991C22 19.0321 21.6332 19.9153 20.8997 20.6488C20.1662 21.3823 19.283 21.7491 18.25 21.7491H5.75C4.71701 21.7491 3.83377 21.3823 3.10026 20.6488C2.36675 19.9153 2 19.0321 2 17.9991V5.49908C2 4.4661 2.36675 3.58285 3.10026 2.84934C3.83377 2.11584 4.71701 1.74908 5.75 1.74908H18.25C19.283 1.74908 20.1662 2.11584 20.8997 2.84934C21.6332 3.58285 22 4.4661 22 5.49908Z" fill="#2997F9"/>
</g>
</svg>
